<mxfile host="65bd71144e" modified="2020-11-18T04:36:53.563Z" agent="5.0 (Windows NT 10.0; Win64; x64) AppleWebKit/537.36 (KHTML, like Gecko) Code/1.51.1 Chrome/83.0.4103.122 Electron/9.3.3 Safari/537.36" etag="vpKrfGksItUsZmbNonZW" version="13.6.5">
    <diagram id="H-5pRMC4eVL883-Qc382" name="Page-1">
        <mxGraphModel dx="882" dy="692" grid="1" gridSize="10" guides="1" tooltips="1" connect="1" arrows="1" fold="1" page="1" pageScale="1" pageWidth="827" pageHeight="1169" math="0" shadow="0">
            <root>
                <mxCell id="0"/>
                <mxCell id="1" parent="0"/>
                <mxCell id="68" value="" style="rounded=0;whiteSpace=wrap;html=1;" parent="1" vertex="1">
                    <mxGeometry x="120" y="40" width="600" height="360" as="geometry"/>
                </mxCell>
                <mxCell id="212" value="" style="rounded=0;whiteSpace=wrap;html=1;fontSize=6;" vertex="1" parent="1">
                    <mxGeometry x="120" y="280.00333333333333" width="600" height="13.333333333333332" as="geometry"/>
                </mxCell>
                <mxCell id="211" value="" style="rounded=0;whiteSpace=wrap;html=1;fontSize=6;" vertex="1" parent="1">
                    <mxGeometry x="120" y="266.6633333333333" width="600" height="13.333333333333332" as="geometry"/>
                </mxCell>
                <mxCell id="190" value="" style="rounded=0;whiteSpace=wrap;html=1;fontSize=6;" vertex="1" parent="1">
                    <mxGeometry x="120" y="280" width="600" height="13.333333333333332" as="geometry"/>
                </mxCell>
                <mxCell id="189" value="" style="rounded=0;whiteSpace=wrap;html=1;fontSize=6;" vertex="1" parent="1">
                    <mxGeometry x="120" y="266.66666666666663" width="600" height="13.333333333333332" as="geometry"/>
                </mxCell>
                <mxCell id="69" value="" style="rounded=0;whiteSpace=wrap;html=1;" parent="1" vertex="1">
                    <mxGeometry x="120" y="40" width="600" height="40" as="geometry"/>
                </mxCell>
                <mxCell id="71" value="10vh" style="text;html=1;strokeColor=none;fillColor=none;align=center;verticalAlign=middle;whiteSpace=wrap;rounded=0;" parent="1" vertex="1">
                    <mxGeometry x="80" y="50" width="40" height="20" as="geometry"/>
                </mxCell>
                <mxCell id="72" value="90vh" style="text;html=1;strokeColor=none;fillColor=none;align=center;verticalAlign=middle;whiteSpace=wrap;rounded=0;" parent="1" vertex="1">
                    <mxGeometry x="30" y="230" width="40" height="20" as="geometry"/>
                </mxCell>
                <mxCell id="73" value="로고이미지" style="rounded=0;whiteSpace=wrap;html=1;" parent="1" vertex="1">
                    <mxGeometry x="120" y="40" width="80" height="40" as="geometry"/>
                </mxCell>
                <mxCell id="74" value="타이틀" style="rounded=0;whiteSpace=wrap;html=1;" parent="1" vertex="1">
                    <mxGeometry x="340" y="40" width="160" height="40" as="geometry"/>
                </mxCell>
                <mxCell id="75" value="종료&lt;br&gt;버튼" style="rounded=0;whiteSpace=wrap;html=1;" parent="1" vertex="1">
                    <mxGeometry x="680" y="40" width="40" height="40" as="geometry"/>
                </mxCell>
                <mxCell id="76" value="" style="rounded=0;whiteSpace=wrap;html=1;" parent="1" vertex="1">
                    <mxGeometry x="120" y="90" width="600" height="40" as="geometry"/>
                </mxCell>
                <mxCell id="83" value="" style="strokeWidth=2;html=1;shape=mxgraph.flowchart.annotation_2;align=left;labelPosition=right;pointerEvents=1;" parent="1" vertex="1">
                    <mxGeometry x="70" y="80" width="50" height="320" as="geometry"/>
                </mxCell>
                <mxCell id="113" value="3.5vh" style="text;html=1;strokeColor=none;fillColor=none;align=center;verticalAlign=middle;whiteSpace=wrap;rounded=0;" parent="1" vertex="1">
                    <mxGeometry x="723" y="76" width="40" height="20" as="geometry"/>
                </mxCell>
                <mxCell id="114" value="3.5vh" style="text;html=1;strokeColor=none;fillColor=none;align=center;verticalAlign=middle;whiteSpace=wrap;rounded=0;" parent="1" vertex="1">
                    <mxGeometry x="723" y="123" width="40" height="20" as="geometry"/>
                </mxCell>
                <mxCell id="115" value="14vh" style="text;html=1;strokeColor=none;fillColor=none;align=center;verticalAlign=middle;whiteSpace=wrap;rounded=0;" parent="1" vertex="1">
                    <mxGeometry x="723" y="100" width="40" height="20" as="geometry"/>
                </mxCell>
                <mxCell id="121" value="r" style="rounded=0;whiteSpace=wrap;html=1;" parent="1" vertex="1">
                    <mxGeometry x="120" y="143" width="600" height="17" as="geometry"/>
                </mxCell>
                <mxCell id="145" value="180px" style="rounded=1;whiteSpace=wrap;html=1;" vertex="1" parent="1">
                    <mxGeometry x="145" y="99" width="55" height="24" as="geometry"/>
                </mxCell>
                <mxCell id="147" value="시작일" style="rounded=0;whiteSpace=wrap;html=1;fontSize=6;" vertex="1" parent="1">
                    <mxGeometry x="120" y="90" width="20" height="40" as="geometry"/>
                </mxCell>
                <mxCell id="148" value="시작시간" style="rounded=0;whiteSpace=wrap;html=1;fontSize=6;" vertex="1" parent="1">
                    <mxGeometry x="210" y="90" width="25" height="40" as="geometry"/>
                </mxCell>
                <mxCell id="157" value="저장버튼" style="rounded=0;whiteSpace=wrap;html=1;" vertex="1" parent="1">
                    <mxGeometry x="670" y="90" width="50" height="40" as="geometry"/>
                </mxCell>
                <mxCell id="172" value="" style="group" vertex="1" connectable="0" parent="1">
                    <mxGeometry x="160" y="143" width="560" height="17" as="geometry"/>
                </mxCell>
                <mxCell id="126" value="O2" style="rounded=0;whiteSpace=wrap;html=1;fontSize=10;" parent="172" vertex="1">
                    <mxGeometry x="140" width="70" height="17" as="geometry"/>
                </mxCell>
                <mxCell id="127" value="&lt;font style=&quot;font-size: 10px&quot;&gt;CO2&lt;/font&gt;" style="rounded=0;whiteSpace=wrap;html=1;fontSize=10;" parent="172" vertex="1">
                    <mxGeometry x="210" width="70" height="17" as="geometry"/>
                </mxCell>
                <mxCell id="128" value="&lt;font style=&quot;font-size: 10px&quot;&gt;CO&lt;/font&gt;" style="rounded=0;whiteSpace=wrap;html=1;fontSize=10;" parent="172" vertex="1">
                    <mxGeometry x="280" width="70" height="17" as="geometry"/>
                </mxCell>
                <mxCell id="129" value="H2S" style="rounded=0;whiteSpace=wrap;html=1;fontSize=10;" parent="172" vertex="1">
                    <mxGeometry x="350" width="70" height="17" as="geometry"/>
                </mxCell>
                <mxCell id="130" value="&lt;font style=&quot;font-size: 10px&quot;&gt;LEL&lt;/font&gt;" style="rounded=0;whiteSpace=wrap;html=1;fontSize=10;" parent="172" vertex="1">
                    <mxGeometry x="420" width="70" height="17" as="geometry"/>
                </mxCell>
                <mxCell id="169" value="상태" style="rounded=0;whiteSpace=wrap;html=1;fontSize=10;" vertex="1" parent="172">
                    <mxGeometry x="70" width="70" height="17" as="geometry"/>
                </mxCell>
                <mxCell id="170" value="날짜" style="rounded=0;whiteSpace=wrap;html=1;fontSize=10;" vertex="1" parent="172">
                    <mxGeometry x="490.00000000000006" width="70" height="17" as="geometry"/>
                </mxCell>
                <mxCell id="171" value="장치명" style="rounded=0;whiteSpace=wrap;html=1;fontSize=10;" vertex="1" parent="172">
                    <mxGeometry width="70" height="17" as="geometry"/>
                </mxCell>
                <mxCell id="173" value="&lt;span&gt;180px&lt;/span&gt;" style="rounded=1;whiteSpace=wrap;html=1;" vertex="1" parent="1">
                    <mxGeometry x="242.5" y="99" width="55" height="24" as="geometry"/>
                </mxCell>
                <mxCell id="174" value="&lt;span&gt;180px&lt;/span&gt;" style="rounded=1;whiteSpace=wrap;html=1;" vertex="1" parent="1">
                    <mxGeometry x="356.25" y="99" width="55" height="24" as="geometry"/>
                </mxCell>
                <mxCell id="175" value="종료일" style="rounded=0;whiteSpace=wrap;html=1;fontSize=6;" vertex="1" parent="1">
                    <mxGeometry x="331.25" y="90" width="20" height="40" as="geometry"/>
                </mxCell>
                <mxCell id="176" value="종료시간" style="rounded=0;whiteSpace=wrap;html=1;fontSize=6;" vertex="1" parent="1">
                    <mxGeometry x="421.25" y="90" width="25" height="40" as="geometry"/>
                </mxCell>
                <mxCell id="177" value="&lt;span&gt;180px&lt;/span&gt;" style="rounded=1;whiteSpace=wrap;html=1;" vertex="1" parent="1">
                    <mxGeometry x="453.75" y="99" width="55" height="24" as="geometry"/>
                </mxCell>
                <mxCell id="178" value="장치" style="rounded=0;whiteSpace=wrap;html=1;fontSize=6;" vertex="1" parent="1">
                    <mxGeometry x="530" y="91" width="20" height="40" as="geometry"/>
                </mxCell>
                <mxCell id="179" value="&lt;span&gt;180px&lt;/span&gt;" style="rounded=1;whiteSpace=wrap;html=1;" vertex="1" parent="1">
                    <mxGeometry x="560" y="98" width="55" height="24" as="geometry"/>
                </mxCell>
                <mxCell id="204" value="" style="rounded=0;whiteSpace=wrap;html=1;fontSize=6;" vertex="1" parent="1">
                    <mxGeometry x="120" y="293.3333333333333" width="600" height="13.333333333333334" as="geometry"/>
                </mxCell>
                <mxCell id="205" value="" style="rounded=0;whiteSpace=wrap;html=1;fontSize=6;" vertex="1" parent="1">
                    <mxGeometry x="120" y="306.66666666666663" width="600" height="13.333333333333334" as="geometry"/>
                </mxCell>
                <mxCell id="206" value="" style="rounded=0;whiteSpace=wrap;html=1;fontSize=6;" vertex="1" parent="1">
                    <mxGeometry x="120" y="320" width="600" height="13.333333333333334" as="geometry"/>
                </mxCell>
                <mxCell id="207" value="" style="rounded=0;whiteSpace=wrap;html=1;fontSize=6;" vertex="1" parent="1">
                    <mxGeometry x="120" y="333.3333333333333" width="600" height="13.333333333333334" as="geometry"/>
                </mxCell>
                <mxCell id="208" value="" style="rounded=0;whiteSpace=wrap;html=1;fontSize=6;" vertex="1" parent="1">
                    <mxGeometry x="120" y="346.66666666666663" width="600" height="13.333333333333334" as="geometry"/>
                </mxCell>
                <mxCell id="188" value="" style="group" vertex="1" connectable="0" parent="1">
                    <mxGeometry x="120" y="160" width="600" height="200" as="geometry"/>
                </mxCell>
                <mxCell id="180" value="" style="rounded=0;whiteSpace=wrap;html=1;fontSize=6;" vertex="1" parent="188">
                    <mxGeometry width="600" height="13.333333333333332" as="geometry"/>
                </mxCell>
                <mxCell id="181" value="" style="rounded=0;whiteSpace=wrap;html=1;fontSize=6;" vertex="1" parent="188">
                    <mxGeometry y="13.333333333333332" width="600" height="13.333333333333332" as="geometry"/>
                </mxCell>
                <mxCell id="182" value="" style="rounded=0;whiteSpace=wrap;html=1;fontSize=6;" vertex="1" parent="188">
                    <mxGeometry y="26.666666666666664" width="600" height="13.333333333333332" as="geometry"/>
                </mxCell>
                <mxCell id="183" value="" style="rounded=0;whiteSpace=wrap;html=1;fontSize=6;" vertex="1" parent="188">
                    <mxGeometry y="40" width="600" height="13.333333333333332" as="geometry"/>
                </mxCell>
                <mxCell id="184" value="" style="rounded=0;whiteSpace=wrap;html=1;fontSize=6;" vertex="1" parent="188">
                    <mxGeometry y="53.33333333333333" width="600" height="13.333333333333332" as="geometry"/>
                </mxCell>
                <mxCell id="185" value="" style="rounded=0;whiteSpace=wrap;html=1;fontSize=6;" vertex="1" parent="188">
                    <mxGeometry y="66.66666666666666" width="600" height="13.333333333333332" as="geometry"/>
                </mxCell>
                <mxCell id="186" value="" style="rounded=0;whiteSpace=wrap;html=1;fontSize=6;" vertex="1" parent="188">
                    <mxGeometry y="80" width="600" height="13.333333333333332" as="geometry"/>
                </mxCell>
                <mxCell id="187" value="" style="rounded=0;whiteSpace=wrap;html=1;fontSize=6;" vertex="1" parent="188">
                    <mxGeometry y="93.33333333333333" width="600" height="13.333333333333332" as="geometry"/>
                </mxCell>
                <mxCell id="210" value="" style="rounded=0;whiteSpace=wrap;html=1;fontSize=6;fillColor=none;" vertex="1" parent="188">
                    <mxGeometry x="40" width="70" height="200" as="geometry"/>
                </mxCell>
                <mxCell id="218" value="" style="rounded=0;whiteSpace=wrap;html=1;fontSize=6;fillColor=none;" vertex="1" parent="188">
                    <mxGeometry x="460" width="70" height="200" as="geometry"/>
                </mxCell>
                <mxCell id="213" value="" style="rounded=0;whiteSpace=wrap;html=1;fontSize=6;fillColor=none;" vertex="1" parent="1">
                    <mxGeometry x="230" y="160" width="70" height="200" as="geometry"/>
                </mxCell>
                <mxCell id="214" value="" style="rounded=0;whiteSpace=wrap;html=1;fontSize=6;fillColor=none;" vertex="1" parent="1">
                    <mxGeometry x="300" y="160" width="70" height="200" as="geometry"/>
                </mxCell>
                <mxCell id="215" value="" style="rounded=0;whiteSpace=wrap;html=1;fontSize=6;fillColor=none;" vertex="1" parent="1">
                    <mxGeometry x="370" y="160" width="70" height="200" as="geometry"/>
                </mxCell>
                <mxCell id="216" value="" style="rounded=0;whiteSpace=wrap;html=1;fontSize=6;fillColor=none;" vertex="1" parent="1">
                    <mxGeometry x="440" y="160" width="70" height="200" as="geometry"/>
                </mxCell>
                <mxCell id="217" value="" style="rounded=0;whiteSpace=wrap;html=1;fontSize=6;fillColor=none;" vertex="1" parent="1">
                    <mxGeometry x="510" y="160" width="70" height="200" as="geometry"/>
                </mxCell>
                <mxCell id="219" value="" style="rounded=0;whiteSpace=wrap;html=1;fillColor=none;fontSize=6;fontColor=#f0f0f0;" vertex="1" parent="1">
                    <mxGeometry x="280" y="370" width="250" height="20" as="geometry"/>
                </mxCell>
                <mxCell id="220" value="3.5vh * 15" style="text;html=1;strokeColor=none;fillColor=none;align=center;verticalAlign=middle;whiteSpace=wrap;rounded=0;" vertex="1" parent="1">
                    <mxGeometry x="770" y="246.66000000000003" width="40" height="20" as="geometry"/>
                </mxCell>
                <mxCell id="221" value="" style="strokeWidth=2;html=1;shape=mxgraph.flowchart.annotation_2;align=left;labelPosition=right;pointerEvents=1;rotation=-180;" vertex="1" parent="1">
                    <mxGeometry x="720" y="160" width="50" height="200" as="geometry"/>
                </mxCell>
            </root>
        </mxGraphModel>
    </diagram>
</mxfile>